<?xml version="1.0" standalone="no"?>
<!DOCTYPE svg PUBLIC "-//W3C//DTD SVG 20010904//EN"
 "http://www.w3.org/TR/2001/REC-SVG-20010904/DTD/svg10.dtd">
<svg version="1.0" xmlns="http://www.w3.org/2000/svg"
 width="252.000000pt" height="252.000000pt" viewBox="0 0 252.000000 252.000000"
 preserveAspectRatio="xMidYMid meet">
<metadata>
Created by potrace 1.11, written by Peter Selinger 2001-2013
</metadata>
<g transform="translate(0.000000,252.000000) scale(0.100000,-0.100000)"
fill="#000000" stroke="none">
<path d="M1078 2485 c-2 -2 -19 -6 -38 -9 -68 -11 -86 -16 -140 -35 -65 -22
-113 -44 -157 -71 -18 -11 -33 -16 -33 -12 0 4 -5 -1 -11 -10 -5 -10 -14 -18
-20 -18 -18 0 -140 -115 -132 -124 4 -3 -2 -6 -12 -6 -10 0 -16 -3 -12 -6 5
-5 -15 -33 -50 -69 -7 -7 -9 -15 -6 -19 3 -3 -2 -8 -11 -12 -9 -3 -16 -10 -16
-14 0 -8 -81 -145 -97 -165 -9 -10 -55 -104 -86 -175 -52 -117 -57 -274 -11
-362 8 -15 16 -42 18 -60 3 -18 5 -33 6 -33 1 0 3 -8 5 -17 2 -9 8 -40 15 -70
6 -29 13 -68 16 -87 6 -46 29 -122 47 -157 17 -33 81 -104 94 -104 4 0 57 -48
117 -107 79 -76 110 -114 112 -132 2 -38 18 -72 50 -106 20 -22 27 -38 25 -61
-3 -40 41 -93 99 -119 22 -10 40 -24 40 -32 0 -31 47 -84 100 -110 35 -18 56
-35 58 -48 2 -11 8 -21 13 -23 5 -2 9 -8 9 -14 0 -16 40 -48 79 -65 19 -8 66
-16 104 -18 96 -5 147 22 177 95 8 19 31 40 65 59 66 38 104 77 101 106 -2 15
5 25 26 34 17 8 48 31 70 51 31 30 39 44 36 67 -2 23 4 33 34 55 32 23 56 66
64 116 2 13 42 53 95 94 137 106 253 280 313 470 15 46 30 95 35 109 9 28 7
362 -2 394 -3 11 -13 45 -22 75 -26 91 -28 96 -73 190 -65 136 -162 251 -297
351 -33 24 -62 46 -65 49 -5 5 -161 84 -170 86 -3 0 -12 3 -20 7 -109 42 -250
65 -402 65 -75 0 -138 -1 -140 -3z m59 -91 c-3 -3 -12 -4 -19 -1 -8 3 -5 6 6
6 11 1 17 -2 13 -5z m398 -634 c-3 -5 -12 -10 -18 -10 -7 0 -6 4 3 10 19 12
23 12 15 0z m-440 -38 c-3 -3 -11 0 -18 7 -9 10 -8 11 6 5 10 -3 15 -9 12 -12z
m-165 -1224 c-20 -8 -60 0 -60 12 0 4 -11 11 -25 14 -14 4 -25 10 -25 15 0 4
29 -2 64 -13 47 -15 59 -23 46 -28z m-40 -88 c6 -11 8 -20 6 -20 -3 0 -10 9
-16 20 -6 11 -8 20 -6 20 3 0 10 -9 16 -20z m317 -56 c-3 -3 -12 -4 -19 -1 -8
3 -5 6 6 6 11 1 17 -2 13 -5z m-140 -98 c1 -1 -1 -7 -5 -13 -5 -8 -15 -5 -31
9 l-25 19 30 -7 c16 -4 30 -7 31 -8z m40 -131 c0 -8 -4 -12 -9 -9 -4 3 -8 9
-8 15 0 5 4 9 8 9 5 0 9 -7 9 -15z m53 -7 c0 -6 -6 -5 -15 2 -8 7 -15 14 -15
16 0 2 7 1 15 -2 8 -4 15 -11 15 -16z"/>
</g>
</svg>
